<?xml version="1.0" encoding="UTF-8" standalone="no"?>
<svg width="100px" height="110px" viewBox="0 0 271 285" version="1.1" xmlns="http://www.w3.org/2000/svg" xmlns:xlink="http://www.w3.org/1999/xlink" xmlns:sketch="http://www.bohemiancoding.com/sketch/ns">
    <!-- Generator: Sketch 3.0.4 (8053) - http://www.bohemiancoding.com/sketch -->
    <title>logo</title>
    <desc>Created with Sketch.</desc>
    <defs>
        <path d="M127.566661,95.5570507 C102.200049,97.3544577 84.152,117.294761 84.152,141.631406 C84.152,164.947679 100.718178,184.22952 124.414988,187.38634 L121.107422,283.757812 L140.294226,271.782886 L137.401193,187.489531 L137.401193,187.489531 C161.58214,184.675648 178.845219,165.217359 178.845219,141.630984 C178.845219,117.030497 160.065543,96.9225853 134.244192,95.5050049 L130.980307,0.40625 L130.980307,15.5798264 L130.832333,0.40625 L127.566661,95.5570507 L127.566661,95.5570507 L127.566661,95.5570507 Z M69.9438438,170.117953 C63.2952344,174.637078 55.42375,177.765984 46.7743281,177.765984 C27.3417813,177.765984 12.6108906,162.199641 12.6108906,142.435359 C12.6108906,122.671219 27.3417813,106.195594 46.7743281,106.195594 C55.5729531,106.195594 63.5589063,109.565953 70.0134531,114.673031 L77.2293438,105.982547 C68.8399375,100.039734 58.4687031,96.2268281 46.7743281,96.2268281 C19.4539844,96.22725 -0.392,116.913328 -0.392,142.43325 C-0.392,167.953312 19.4539844,188.641359 46.7743281,188.641359 C58.4665938,188.641359 68.8379688,184.830562 77.4650313,179.175047 L69.9438438,170.117953 L69.9438438,170.117953 Z M260.887844,170.117953 C254.239234,174.637078 246.36775,177.765984 237.718328,177.765984 C218.285781,177.765984 203.554891,162.199641 203.554891,142.435359 C203.554891,122.671219 218.285781,106.195594 237.718328,106.195594 C246.516953,106.195594 254.502906,109.565953 260.957453,114.673031 L268.173344,105.982547 C259.783938,100.039734 249.412703,96.2268281 237.718328,96.2268281 C210.397984,96.22725 190.552,116.913328 190.552,142.43325 C190.552,167.953312 210.397984,188.641359 237.718328,188.641359 C249.410594,188.641359 259.781969,184.830562 268.409031,179.175047 L260.887844,170.117953 L260.887844,170.117953 Z M131.31875,176.963719 C111.885781,176.963719 97.1548906,161.397375 97.1548906,141.633094 C97.1548906,121.868953 111.885781,105.393328 131.31875,105.393328 C150.747078,105.393328 166.309625,121.715391 166.309625,141.479672 C166.309625,161.243812 150.747078,176.963719 131.31875,176.963719 L131.31875,176.963719 Z" id="path-1"></path>
    </defs>
    <g id="Page-1" stroke="none" stroke-width="1" fill="none" fill-rule="evenodd" sketch:type="MSPage">
        <g id="COC-+-Path-5-+-COC-4" sketch:type="MSLayerGroup" transform="translate(1.000000, 0.000000)">
            <g id="logo">
                <use fill="#FFFFFF" fill-rule="evenodd" sketch:type="MSShapeGroup" xlink:href="#path-1"></use>
                <use fill="none" xlink:href="#path-1"></use>
            </g>
        </g>
    </g>
</svg>
